<?xml version="1.0" encoding="UTF-8"?>
<svg width="204px" height="197px" viewBox="0 0 204 197" version="1.1" xmlns="http://www.w3.org/2000/svg"
     xmlns:xlink="http://www.w3.org/1999/xlink">
    <title>Group</title>
    <g id="Page-1" stroke="none" stroke-width="1" fill="none" fill-rule="evenodd">
        <g id="Artboard" transform="translate(-511, -162)">
            <g id="Group" transform="translate(511, 162)">
                <rect id="Rectangle" stroke="#fb9582" fill="#fb9582"
                      transform="translate(87.7632, 95.0754) rotate(-90) translate(-87.7632, -95.0754)" x="25.7632217"
                      y="33.0753528" width="124" height="124" rx="62"></rect>
                <g id="ClipboardCheckmark" fill="#23262A">
                    <path d="M17.5555556,4.11538462 C17.5555556,1.84254 19.5205489,0 21.9444444,0 L57.0555556,0 C59.4793926,0 61.4444444,1.84254 61.4444444,4.11538462 L61.4444444,10.974359 L74.6111111,10.974359 C77.0349481,10.974359 79,12.816899 79,15.0897436 L79,102.884615 C79,105.157405 77.0349481,107 74.6111111,107 L4.38888889,107 C1.96499333,107 0,105.157405 0,102.884615 L0,15.0897436 C0,12.816899 1.96499333,10.974359 4.38888889,10.974359 L17.5555556,10.974359 L17.5555556,4.11538462 Z M61.4444444,20.5769231 C61.4444444,22.8497677 59.4793926,24.6923077 57.0555556,24.6923077 L21.9444444,24.6923077 C19.5205489,24.6923077 17.5555556,22.8497677 17.5555556,20.5769231 L17.5555556,19.2051282 L8.77777778,19.2051282 L8.77777778,98.7692308 L70.2222222,98.7692308 L70.2222222,19.2051282 L61.4444444,19.2051282 L61.4444444,20.5769231 Z M52.6666667,16.4615385 L26.3333333,16.4615385 L26.3333333,8.23076923 L52.6666667,8.23076923 L52.6666667,16.4615385 Z M54.3069407,59.153441 C56.0209481,57.5462462 56.0209481,54.9409333 54.3069407,53.3337385 C52.5929333,51.7265436 49.8144741,51.7265436 48.1004667,53.3337385 L36.5740741,64.1412872 L30.8995333,58.8209179 C29.1855259,57.2137231 26.4068326,57.2137231 24.6928837,58.8209179 C22.9789348,60.4281128 22.9789348,63.0334256 24.6928837,64.6406205 L33.470837,72.8713897 C35.1848444,74.4785846 37.9633037,74.4785846 39.6773111,72.8713897 L54.3069407,59.153441 Z"
                          id="Shape"></path>
                </g>
                <g id="Cog" transform="translate(79, 72)" fill="#23262A">
                    <path d="M53.1615385,0 C50.9435897,0 49.0130128,1.51769231 48.4896154,3.67333333 L45.5477564,15.7896154 C44.1546795,16.2953205 42.7907692,16.8614744 41.4592308,17.4848077 L30.7220513,10.9430128 C28.8276923,9.78884615 26.3895513,10.0805769 24.8210256,11.6491026 L11.6488462,24.8212821 C10.0802564,26.3898718 9.78852564,28.8279487 10.9426923,30.7223077 L17.4845513,41.4595513 C16.8612179,42.7910897 16.2950641,44.155 15.789359,45.5480769 L3.67333333,48.4898718 C1.51769231,49.0132692 0,50.9435897 0,53.1615385 L0,71.8391026 C0,74.0570513 1.51769231,75.9871795 3.67333333,76.5108974 L15.789359,79.4525641 C16.2950641,80.8455128 16.8612179,82.2096154 17.4845513,83.5410256 L10.9429487,94.2782051 C9.78878205,96.1724359 10.0805128,98.6102564 11.6490385,100.178846 L24.8214103,113.351282 C26.3899359,114.919872 28.8280769,115.211538 30.7224359,114.057692 L41.4592308,107.516026 C42.7907692,108.139103 44.1546795,108.705128 45.5477564,109.210897 L48.4894872,121.326923 C49.0128846,123.482051 50.9429487,125 53.1615385,125 L71.8384615,125 C74.0570513,125 75.9871795,123.482051 76.5102564,121.326923 L79.4519231,109.210897 C80.8455128,108.705128 82.2089744,108.139103 83.5410256,107.516026 L94.2775641,114.057692 C96.1717949,115.211538 98.6102564,114.919872 100.178846,113.351282 L113.351282,100.178846 C114.919231,98.6102564 115.211538,96.1724359 114.057051,94.2782051 L107.515385,83.5410256 C108.139103,82.2096154 108.705128,80.8455128 109.210897,79.4525641 L121.326923,76.5108974 C123.482051,75.9871795 125,74.0570513 125,71.8391026 L125,53.1615385 C125,50.9435897 123.482051,49.0132692 121.326923,48.4898718 L109.210897,45.5480769 C108.705128,44.155 108.139103,42.7910256 107.515385,41.4594231 L114.057051,30.7223077 C115.211538,28.8279487 114.919872,26.3898718 113.351282,24.8213462 L100.178846,11.6491026 C98.6102564,10.0805769 96.1724359,9.78884615 94.2782051,10.9430128 L83.5410256,17.4848077 C82.2089744,16.8614103 80.8455128,16.2953205 79.4519231,15.7896154 L76.5102564,3.67333333 C75.9871795,1.51769231 74.0564103,0 71.8384615,0 L53.1615385,0 Z M54.2628205,20.6475 L56.9416667,9.61538462 L68.0583333,9.61538462 L70.7371795,20.6474359 C71.1397436,22.3066667 72.3923077,23.6277564 74.0282051,24.1182051 C76.6339744,24.8996795 79.1294872,25.9398718 81.4839744,27.2094231 C82.9871795,28.0201282 84.8083333,27.9721154 86.2666667,27.0833333 L96.0525641,21.1211538 L103.879487,28.9475 L97.9173077,38.7333333 C97.0282051,40.1921154 96.9801282,42.0129487 97.7910256,43.5165385 C99.0602564,45.8710897 100.100641,48.3662179 100.882051,50.9724359 C101.372436,52.6076923 102.69359,53.8602564 104.353205,54.2634615 L115.384615,56.9416667 L115.384615,68.0589744 L104.353205,70.7371795 C102.69359,71.1403846 101.372436,72.3929487 100.882051,74.0282051 C100.100641,76.6346154 99.0602564,79.1294872 97.7910256,81.4839744 C96.9801282,82.9878205 97.0282051,84.8083333 97.9173077,86.2673077 L103.878846,96.0525641 L96.0525641,103.879487 L86.2666667,97.9173077 C84.8083333,97.0282051 82.9871795,96.9807692 81.4839744,97.7910256 C79.1294872,99.0608974 76.6339744,100.100641 74.0282051,100.882692 C72.3923077,101.373077 71.1397436,102.694231 70.7371795,104.353205 L68.0583333,115.384615 L56.9416667,115.384615 L54.2628205,104.353205 C53.8602564,102.69359 52.6076923,101.373077 50.9717949,100.882692 C48.3658974,100.100641 45.8708333,99.0608974 43.5162821,97.7910256 C42.0126923,96.9807692 40.191859,97.0282051 38.7330769,97.9173077 L28.9475641,103.879487 L21.1210897,96.0525641 L27.0830769,86.2673077 C27.971859,84.8083333 28.0198718,82.9878205 27.2091667,81.4839744 C25.9396154,79.1294872 24.8994872,76.6346154 24.1179487,74.0282051 C23.6275,72.3929487 22.3064744,71.1403846 20.6472436,70.7371795 L9.61538462,68.0589744 L9.61538462,56.9416667 L20.6472436,54.2634615 C22.3064744,53.8602564 23.6275,52.6076923 24.1179487,50.9724359 C24.8994872,48.3662179 25.9396154,45.8711538 27.2091667,43.5166026 C28.0198718,42.0130128 27.971859,40.1921795 27.0830769,38.7333974 L21.1208333,28.9475 L28.9471795,21.1211538 L38.7330769,27.0833974 C40.191859,27.9721795 42.0126923,28.0201282 43.5162821,27.2094231 C45.8708333,25.9398718 48.3659615,24.8997436 50.9717949,24.1182051 C52.6076923,23.6277564 53.8602564,22.3067308 54.2628205,20.6475 Z M51.2820513,62.5 C51.2820513,56.3044872 56.3044872,51.2820513 62.5,51.2820513 C68.6955128,51.2820513 73.7179487,56.3044872 73.7179487,62.5 C73.7179487,68.6955128 68.6955128,73.7179487 62.5,73.7179487 C56.3044872,73.7179487 51.2820513,68.6955128 51.2820513,62.5 Z M62.5,41.6666667 C50.9942308,41.6666667 41.6666667,50.9942308 41.6666667,62.5 C41.6666667,74.0057692 50.9942308,83.3333333 62.5,83.3333333 C74.0057692,83.3333333 83.3333333,74.0057692 83.3333333,62.5 C83.3333333,50.9942308 74.0057692,41.6666667 62.5,41.6666667 Z"
                          id="Shape"></path>
                </g>
            </g>
        </g>
    </g>
</svg>